<?xml version="1.0" encoding="utf-8"?>

<!DOCTYPE svg PUBLIC "-//W3C//DTD SVG 1.1//EN" "http://www.w3.org/Graphics/SVG/1.1/DTD/svg11.dtd">
<svg version="1.1" id="Layer_1" xmlns="http://www.w3.org/2000/svg" xmlns:xlink="http://www.w3.org/1999/xlink" x="0px" y="0px"
	 viewBox="0 0 2682 1592.058" style="enable-background:new 0 0 2682 1592.058;" xml:space="preserve">
<g>
	<path d="M118.117,803.778C188.332,547.934,258.362,292.021,328.695,36.21c67.638,270.114,134.956,540.295,202.627,810.408
		C397.024,810.517,256.93,796.568,118.117,803.778z"/>
	<path d="M2318.598,85.216c36.253,159.585,72.507,319.153,108.76,478.722c20.199,89.437,40.869,178.773,60.765,268.277
		c-23.585,0.152-47.187-0.522-70.754,0.657c-75.775,3.251-150.252,18.918-224.14,35.04c-16.627,3.74-33.204,7.631-49.68,11.877
		C2201.954,614.948,2260.242,350.074,2318.598,85.216z"/>
	<path d="M1521.364,818.805c36.068-157.766,72.052-315.548,108.17-473.297c40.701,156.165,81.435,312.331,122.169,468.479
		C1675.204,805.143,1597.374,806.171,1521.364,818.805z"/>
	<path d="M680.227,423.086c36.59,175.202,72.776,350.471,109.316,525.689c-68.733-35.158-139.572-66.627-213.527-89.184
		C610.719,714.072,645.44,568.57,680.227,423.086z"/>
	<path d="M1780.662,817.828c15.246-56.62,30.458-113.241,45.738-169.844c12.904,62.416,25.825,124.814,38.713,187.213
		C1837.299,827.919,1809.082,822.141,1780.662,817.828z"/>
	<path d="M1225.98,931.979c10.495-59.366,20.384-118.834,30.896-178.2c12.214,44.255,24.124,88.595,36.304,132.85
		c0.404,2.308,1.718,4.666,1.381,7.059C1271.263,905.631,1248.234,918.182,1225.98,931.979z"/>
	<path d="M1158.326,809.641c8.726,49.815,17.47,99.629,25.96,149.477c-27.156,18.565-53.268,38.645-78.268,60.007
		C1123.504,949.314,1141.041,879.503,1158.326,809.641z"/>
	<path d="M1435.195,909.001c79.177-25.758,163.022-36.118,246.125-32.8c96.495,3.386,192.452,24.848,280.71,64.151
		c-62.264,25.691-122.59,55.761-183.035,85.411c-29.599,14.639-59.366,28.976-88.628,44.272c-2.207,1.381-4.818,0.691-7.193,0.606
		c-35.36-3.251-71.024-1.432-106.166,3.167c-65.869,8.625-130.155,28.875-189.184,59.316
		c-42.166,21.597-81.519,48.467-117.823,78.841c-56.604-31.907-112.854-64.42-169.423-96.411
		c50.269-49.747,106.418-93.564,167.048-130.02C1320.337,953.795,1376.485,927.548,1435.195,909.001z"/>
	<path d="M163.45,886.359c157.951-2.847,316.997,23.046,464.301,80.727c58.979,23.181,115.263,52.493,171.782,81.014
		c139.42,71.31,275.134,149.528,411.134,227.105c63.292,35.916,126.651,71.765,191.105,105.576
		c57.934,30.29,116.509,59.619,177.223,83.979c90.38,35.765,183.12,65.33,276.836,90.987c-144.71,0.017-289.42-0.017-434.129,0.017
		c-3.942,0.219-7.362-2.005-10.782-3.571c-114.976-57.716-226.044-122.776-337.903-186.219
		c-64.858-37.045-129.902-73.753-195.569-109.332c-82.665-44.71-165.97-88.359-251.229-127.931
		c-167.907-75.926-353.132-110.444-536.993-108.676c-9.316-0.084-18.649,0.809-27.948-0.034
		c0.371-42.267,0.202-84.552,0.084-126.819C95.172,888.65,129.37,887.319,163.45,886.359z"/>
	<path d="M2287.972,917.07c78.571-15.583,159.181-22.372,239.184-16.459c31.385,2.409,62.736,6.52,93.379,13.848
		c0.034,49.158-0.118,98.332,0.084,147.489c-86.876-4.919-174.41-5.66-260.781,6.25c-80.239,10.563-160.09,25.792-237.466,49.865
		c-64.909,20.064-127.678,46.833-187.718,78.571c-107.631,56.907-208.406,125.69-307.142,196.63
		c-64.201-24.41-125.707-55.256-186.539-86.994c108.44-78.706,222.489-150.185,343.463-208.069
		c59.703-29.38,119.255-59.164,180.239-85.832c62.736-27.712,127.762-50.286,194.288-66.998
		C2201.634,934.472,2244.761,925.476,2287.972,917.07z"/>
	<path d="M61.328,1105.294c42.436-2.308,85.023-0.876,127.426,1.769c146.041,10.007,291.07,44.761,423.398,107.985
		c140.768,67.469,277.358,143.261,412.937,220.552c56.924,32.395,113.729,65.01,170.872,97.018
		c14.083,7.766,27.931,15.97,42.284,23.231c-88.19-0.219-176.398-0.051-264.588-0.084c-4.885-0.286-10.259,1.028-14.606-1.803
		c-129.144-73.298-259.079-145.417-392.789-210.141c-103.184-51.129-213.931-86.708-327.324-106.502
		c-58.625-10.546-118.008-16.577-177.476-19.323C61.378,1180.428,61.648,1142.861,61.328,1105.294z"/>
	<path d="M2359.333,1136.24c86.388-12.55,174.107-12.129,261.051-6.604c0.37,41.914,0,83.827,0.185,125.758
		c-46.462-0.017-92.991,1.129-139.218,6.098c-75.101,8.625-149.865,21.277-222.978,40.667
		c-64.875,17.2-128.183,40.364-188.628,69.525c-63.949,30.526-125,66.728-184.771,104.7
		c-60.731-16.459-120.99-34.737-180.525-55.138c51.887-36.809,104.649-72.439,158.726-105.946
		c60.579-37.214,122.927-71.883,188.46-99.629C2149.495,1173.808,2254.161,1150.425,2359.333,1136.24z"/>
	<path d="M1333.173,1247.594c66.307-51.819,144.844-88.224,227.779-103.217c-63.881,39.235-125.623,81.89-185.798,126.566
		C1361.189,1263.093,1347.088,1255.495,1333.173,1247.594z"/>
	<path d="M61.395,1302.615c128.857,5.34,257.142,30.862,377.61,77.139c48.349,18.464,94.676,41.678,140.97,64.69
		c63.561,31.907,126.364,65.263,188.712,99.477c7.328,3.925,14.437,8.288,21.968,11.877c-69.103-0.27-138.241,0.32-207.328-0.303
		c-28.15-13.123-55.744-27.577-83.979-40.6c-137.365-64.454-287.213-100.556-438.324-111.624
		C61.345,1369.73,61.681,1336.172,61.395,1302.615z"/>
	<path d="M2476.634,1329.855c47.725-5.627,95.872-7.497,143.901-6.755c0.219,77.51,0.825,155.02,0.169,232.53
		c-127.847,0.253-255.71,0.135-383.557,0.05c-88.342-15.145-175.825-34.889-262.954-55.829
		c26.887-14.976,53.217-31.014,80.576-45.148c60.849-32.328,124.646-59.249,190.717-78.908
		C2320.872,1353.238,2398.618,1339.474,2476.634,1329.855z"/>
	<path d="M61.243,1555.545c-0.489-22.557-0.067-45.098-0.202-67.655c64.774,4.953,129.161,15.061,192.317,30.206
		c42.604,10.007,84.349,23.214,125.673,37.534c-101.128,0.303-202.257,0.017-303.385,0.135
		C70.846,1555.781,66.045,1555.697,61.243,1555.545z"/>
</g>
</svg>
